<mxfile host="app.diagrams.net" agent="Mozilla/5.0 (Windows NT 10.0; Win64; x64) AppleWebKit/537.36 (KHTML, like Gecko) Chrome/129.0.0.0 Safari/537.36" version="24.7.17">
  <diagram name="Página-1" id="XUZbAQxncrmcqRJg3wfU">
    <mxGraphModel dx="1434" dy="780" grid="1" gridSize="10" guides="1" tooltips="1" connect="1" arrows="1" fold="1" page="1" pageScale="1" pageWidth="827" pageHeight="1169" math="0" shadow="0">
      <root>
        <mxCell id="0" />
        <mxCell id="1" parent="0" />
        <mxCell id="9QgjM8Oi2G17gKGQZ7mR-1" value="Usuário" style="shape=umlActor;verticalLabelPosition=bottom;verticalAlign=top;html=1;outlineConnect=0;" vertex="1" parent="1">
          <mxGeometry x="70" y="260" width="30" height="60" as="geometry" />
        </mxCell>
        <mxCell id="9QgjM8Oi2G17gKGQZ7mR-2" value="" style="rounded=0;whiteSpace=wrap;html=1;" vertex="1" parent="1">
          <mxGeometry x="230" y="60" width="450" height="410" as="geometry" />
        </mxCell>
        <mxCell id="9QgjM8Oi2G17gKGQZ7mR-3" value="Visualizar Produto" style="ellipse;whiteSpace=wrap;html=1;" vertex="1" parent="1">
          <mxGeometry x="344" y="110" width="140" height="70" as="geometry" />
        </mxCell>
        <mxCell id="9QgjM8Oi2G17gKGQZ7mR-4" value="Registrar produto" style="ellipse;whiteSpace=wrap;html=1;" vertex="1" parent="1">
          <mxGeometry x="540" y="215" width="140" height="70" as="geometry" />
        </mxCell>
        <mxCell id="9QgjM8Oi2G17gKGQZ7mR-5" value="Editar produto" style="ellipse;whiteSpace=wrap;html=1;" vertex="1" parent="1">
          <mxGeometry x="380" y="285" width="140" height="70" as="geometry" />
        </mxCell>
        <mxCell id="9QgjM8Oi2G17gKGQZ7mR-6" value="Excluir produto" style="ellipse;whiteSpace=wrap;html=1;" vertex="1" parent="1">
          <mxGeometry x="240" y="380" width="140" height="70" as="geometry" />
        </mxCell>
        <mxCell id="9QgjM8Oi2G17gKGQZ7mR-8" value="" style="endArrow=none;html=1;rounded=0;entryX=0;entryY=0.5;entryDx=0;entryDy=0;" edge="1" parent="1" target="9QgjM8Oi2G17gKGQZ7mR-3">
          <mxGeometry width="50" height="50" relative="1" as="geometry">
            <mxPoint x="100" y="290" as="sourcePoint" />
            <mxPoint x="150" y="240" as="targetPoint" />
          </mxGeometry>
        </mxCell>
        <mxCell id="9QgjM8Oi2G17gKGQZ7mR-9" value="" style="endArrow=none;html=1;rounded=0;entryX=0;entryY=0.5;entryDx=0;entryDy=0;" edge="1" parent="1" target="9QgjM8Oi2G17gKGQZ7mR-4">
          <mxGeometry width="50" height="50" relative="1" as="geometry">
            <mxPoint x="100" y="290" as="sourcePoint" />
            <mxPoint x="390" y="155" as="targetPoint" />
          </mxGeometry>
        </mxCell>
        <mxCell id="9QgjM8Oi2G17gKGQZ7mR-10" value="" style="endArrow=none;html=1;rounded=0;entryX=0;entryY=0.5;entryDx=0;entryDy=0;" edge="1" parent="1" target="9QgjM8Oi2G17gKGQZ7mR-5">
          <mxGeometry width="50" height="50" relative="1" as="geometry">
            <mxPoint x="100" y="290" as="sourcePoint" />
            <mxPoint x="400" y="165" as="targetPoint" />
          </mxGeometry>
        </mxCell>
        <mxCell id="9QgjM8Oi2G17gKGQZ7mR-11" value="" style="endArrow=none;html=1;rounded=0;entryX=0;entryY=0.5;entryDx=0;entryDy=0;" edge="1" parent="1" target="9QgjM8Oi2G17gKGQZ7mR-6">
          <mxGeometry width="50" height="50" relative="1" as="geometry">
            <mxPoint x="100" y="290" as="sourcePoint" />
            <mxPoint x="410" y="175" as="targetPoint" />
          </mxGeometry>
        </mxCell>
        <mxCell id="9QgjM8Oi2G17gKGQZ7mR-12" value="&amp;lt;&amp;lt;Includes&amp;gt;&amp;gt;" style="endArrow=none;dashed=1;html=1;rounded=0;exitX=0.5;exitY=0;exitDx=0;exitDy=0;endFill=0;startArrow=block;startFill=0;" edge="1" parent="1" source="9QgjM8Oi2G17gKGQZ7mR-6">
          <mxGeometry width="50" height="50" relative="1" as="geometry">
            <mxPoint x="364" y="230" as="sourcePoint" />
            <mxPoint x="414" y="180" as="targetPoint" />
          </mxGeometry>
        </mxCell>
        <mxCell id="9QgjM8Oi2G17gKGQZ7mR-14" value="&amp;lt;&amp;lt;Includes&amp;gt;&amp;gt;" style="endArrow=none;dashed=1;html=1;rounded=0;exitX=0.5;exitY=0;exitDx=0;exitDy=0;endFill=0;startArrow=block;startFill=0;entryX=0.5;entryY=1;entryDx=0;entryDy=0;" edge="1" parent="1" source="9QgjM8Oi2G17gKGQZ7mR-5" target="9QgjM8Oi2G17gKGQZ7mR-3">
          <mxGeometry width="50" height="50" relative="1" as="geometry">
            <mxPoint x="320" y="390" as="sourcePoint" />
            <mxPoint x="424" y="190" as="targetPoint" />
          </mxGeometry>
        </mxCell>
        <mxCell id="9QgjM8Oi2G17gKGQZ7mR-15" value="&amp;lt;&amp;lt;Includes&amp;gt;&amp;gt;" style="endArrow=none;dashed=1;html=1;rounded=0;exitX=0.5;exitY=0;exitDx=0;exitDy=0;endFill=0;startArrow=block;startFill=0;" edge="1" parent="1" source="9QgjM8Oi2G17gKGQZ7mR-4">
          <mxGeometry width="50" height="50" relative="1" as="geometry">
            <mxPoint x="330" y="400" as="sourcePoint" />
            <mxPoint x="410" y="180" as="targetPoint" />
          </mxGeometry>
        </mxCell>
        <mxCell id="9QgjM8Oi2G17gKGQZ7mR-16" value="Caso de uso de Controle de Estoque" style="text;html=1;align=center;verticalAlign=middle;whiteSpace=wrap;rounded=0;" vertex="1" parent="1">
          <mxGeometry x="342" y="60" width="226" height="30" as="geometry" />
        </mxCell>
      </root>
    </mxGraphModel>
  </diagram>
</mxfile>
